<?xml version="1.0" standalone="no"?>
<!DOCTYPE svg PUBLIC "-//W3C//DTD SVG 20010904//EN"
 "http://www.w3.org/TR/2001/REC-SVG-20010904/DTD/svg10.dtd">
<svg version="1.0" xmlns="http://www.w3.org/2000/svg"
 width="1280.000000pt" height="1280.000000pt" viewBox="0 0 1280.000000 1280.000000"
 preserveAspectRatio="xMidYMid meet">
<g transform="translate(0.000000,1280.000000) scale(0.100000,-0.100000)"
fill="#000000" stroke="none">
<path d="M6394 12234 c-117 -99 -317 -304 -423 -434 -162 -198 -290 -411 -339
-565 l-23 -70 -94 -48 c-569 -290 -1053 -946 -1160 -1571 -22 -131 -20 -354 5
-477 56 -272 186 -499 412 -715 104 -99 251 -214 313 -244 22 -10 93 -33 157
-49 667 -172 1146 2 1318 477 76 209 95 439 57 695 -24 168 -23 460 2 584 22
106 58 190 101 240 57 64 133 239 176 401 34 131 36 316 4 407 -43 124 -126
214 -253 274 -69 33 -117 47 -292 86 -66 15 -126 29 -132 31 -18 5 -16 57 7
177 40 207 110 360 219 479 65 72 68 78 80 150 8 41 14 99 14 129 3 134 -30
143 -149 43z"/>
<path d="M9216 11449 c-21 -18 -55 -71 -87 -134 -50 -102 -51 -106 -40 -149
18 -71 14 -240 -8 -331 -24 -98 -69 -217 -119 -310 -44 -83 -42 -83 -187 -30
-199 73 -216 77 -338 82 -105 5 -124 3 -180 -17 -79 -29 -131 -65 -196 -136
-122 -134 -225 -445 -221 -670 3 -145 -1 -178 -25 -251 -61 -181 -220 -429
-416 -651 -97 -110 -204 -342 -244 -530 -22 -104 -20 -261 5 -358 83 -331 404
-599 895 -749 112 -35 126 -37 215 -32 680 39 1133 356 1333 932 126 365 142
833 43 1272 -49 215 -121 400 -222 565 l-56 93 11 55 c43 200 45 226 45 450 0
242 -14 385 -59 611 -46 226 -76 319 -105 319 -5 0 -25 -14 -44 -31z"/>
<path d="M1968 9953 c-40 -44 -163 -254 -238 -408 -140 -290 -216 -523 -240
-735 -16 -146 -15 -142 -66 -202 -251 -292 -423 -795 -441 -1293 -19 -517 126
-955 412 -1240 222 -223 529 -358 922 -406 95 -12 108 -11 202 10 223 50 440
138 598 244 310 206 444 492 389 828 -25 149 -73 286 -183 514 -228 475 -385
848 -414 985 -46 212 -132 416 -228 542 -89 117 -209 201 -322 227 -59 14
-185 14 -270 -1 -42 -6 -73 -7 -79 -2 -5 5 -13 56 -18 114 -17 184 14 368 83
489 29 50 31 84 10 200 -26 148 -63 191 -117 134z"/>
<path d="M11660 6792 l-96 -98 -11 -94 c-17 -146 -86 -315 -169 -415 l-25 -30
-32 40 c-199 249 -384 347 -597 316 -203 -30 -387 -134 -604 -342 -149 -141
-459 -359 -925 -648 -207 -129 -289 -190 -382 -288 -149 -156 -218 -292 -240
-474 -37 -305 114 -644 436 -978 82 -85 99 -98 200 -146 243 -117 429 -164
670 -172 148 -5 183 -3 275 16 298 61 536 203 782 467 336 361 597 987 598
1436 0 82 2 90 44 170 143 273 226 652 242 1108 7 199 1 230 -43 230 -21 0
-48 -22 -123 -98z"/>
<path d="M4985 5894 c-243 -35 -378 -73 -527 -151 -305 -157 -537 -437 -695
-838 -47 -119 -48 -121 -143 -215 -276 -274 -609 -415 -1007 -426 -124 -3
-162 -8 -209 -25 -239 -90 -430 -320 -512 -619 -52 -187 -88 -547 -73 -730 32
-390 217 -742 546 -1039 101 -91 143 -118 344 -226 400 -214 889 -426 1336
-578 398 -135 1128 -330 1495 -398 251 -47 536 -90 717 -109 460 -49 588 -52
768 -16 428 85 770 296 997 613 63 89 219 388 265 508 67 177 77 234 78 425 0
156 -3 183 -23 250 -55 176 -139 283 -297 380 -110 68 -306 258 -384 373 -109
161 -195 365 -231 552 -18 97 -19 112 -6 168 50 218 63 496 32 682 -53 322
-212 598 -464 809 -241 200 -588 357 -941 426 -53 11 -134 33 -180 50 -115 42
-326 96 -451 115 -103 16 -376 28 -435 19z"/>
</g>
</svg>
